<?xml version="1.0" encoding="UTF-8"?>
<svg version="1.1" viewBox="0 0 4096 806" width="8000" height="1576" xmlns="http://www.w3.org/2000/svg">
<path transform="translate(3385,107)" d="m0 0h131l3 29 22 277 3-4 36-78 15-33 18-39 16-35 18-39 15-33 18-39 3-6h105l5 41 28 259 1 8 15-35 23-54 21-49 23-54 24-56 23-54 3-6h142l-2 9-12 26-19 42-9 20-18 39-12 27-16 34-12 27-18 39-16 36-13 28-18 40-15 33-13 28-12 27-13 28-8 18h-138l-1-1-18-162-12-110-3 4-15 32-15 33-14 30-18 39-13 28-36 78-13 29h-138l-4-33-33-315-15-143v-9z" fill="#fff"/>
<path transform="translate(1638,96)" d="m0 0h47l19 2 23 4 24 7 24 10 15 8 11 7 17 13 14 12 10 10 11 14 9 13 10 17-1 4-19 10-28 15-22 12-23 12-22 12-3 1-5-5-7-10-7-9-8-7-16-10-17-7-14-4-17-2h-28l-16 2-20 5-15 6-19 10-15 11-7 7-8 7-7 8-9 13-9 15-8 20-6 21-3 18v37l2 11 5 17 10 19 7 9 8 9 13 9 16 8 13 4 16 3h39l16-2 21-5 17-6 17-10 13-10 11-11 11-16-113-1v-10l17-97 1-5h255v8l-10 59-8 31-9 26-12 26-10 18-11 16-11 14-11 12-7 8-10 10-10 8-14 11-17 11-19 11-23 10-24 8-24 6-17 3-19 2h-61l-23-3-22-5-29-10-21-10-22-15-14-12-13-12-9-11-9-12-10-15-12-23-9-25-5-21-3-21-1-15v-18l2-26 6-34 8-29 7-19 11-24 8-15 10-16 12-16 11-13 11-12 7-8 10-9 11-9 17-13 20-13 29-15 18-7 18-6 24-6 27-4z" fill="#fff"/>
<path transform="translate(3099,96)" d="m0 0h49l19 2 22 4 23 7 21 9 22 12 14 11 14 12 15 15 10 13 12 17 12 22 7 16 7 21 5 24 2 17v41l-4 30-7 30-10 30-11 25-11 20-12 18-9 12-9 11-22 24-14 13-17 13-16 11-21 12-19 9-19 7-19 6-27 6-24 3h-61l-22-3-21-5-23-8-16-7-18-10-18-13-14-12-13-12-11-13-11-16-8-14-8-16-8-21-6-22-3-17-2-20v-27l3-27 4-22 7-26 9-25 12-26 11-19 11-16 7-9 11-13 9-10 12-13 12-11 18-14 13-9 16-10 26-13 23-9 24-7 25-5zm-2 127-16 2-20 5-21 9-13 7-15 11-14 13-12 12-12 18-8 14-6 15-6 20-3 18v38l3 15 6 17 8 13 9 11 9 9 14 9 13 6 16 5 13 2h37l18-3 20-6 16-7 17-10 13-10 17-16 9-10 9-13 9-16 7-17 5-19 3-17v-34l-2-12-6-19-8-14-11-14-8-8-15-10-15-7-17-5-16-2z" fill="#fff"/>
<path transform="translate(2450,107)" d="m0 0h218l19 3 18 5 18 8 16 9 14 11 15 14 11 14 10 16 8 17 4 11 4 19 1 9v25l-4 26-6 22-7 18-12 23-8 11-9 11-11 12-12 11-14 10-17 10-10 5 1 5 22 59 16 42 20 53 8 21v1h-132l-10-26-18-50-17-46-13-36v-3h-53l-1 11-15 87-11 62-1 1h-130v-7l23-131 29-163 33-186zm108 120-19 107 1 4h76l16-3 12-6 11-9 8-11 7-14 3-12v-23l-3-10-5-8-6-7-12-6-6-2z" fill="#fff"/>
<path transform="translate(2091,107)" d="m0 0h159l2 7 27 176 31 200 17 110v8h-139l-3-21-5-46v-5l-24 1h-141l-3 9-17 35-11 23-2 4h-143l3-9 31-62 10-19 30-60 10-19 31-62 10-19 31-62 10-19 29-58 10-19 30-60 10-19zm59 149-10 19-14 29-16 33-11 23-14 29-13 28-3 7 1 1h98v-9l-16-151-1-9z" fill="#fff"/>
<path transform="translate(347,107)" d="m0 0h73l20 4 18 6 16 8 13 8 13 11 14 14 11 16 10 19 7 21 3 17 1 21-2 20-6 23-9 20-8 13-9 11-9 10-11 10-18 12-21 10-20 6-17 3-9 1-228 1-20 1-12 4-10 6-5 5-7 10-4 10v22l3 10 6 10 6 7 15 8 8 2 53 1 276 1-1 7-19 42-18 41-13 29h-286l-22-4-21-7-16-7-19-11-11-9-8-7-10-9-10-11-12-18-9-16-7-18-5-19-1-6v-51l3-16 6-19 9-20 9-15 13-16 9-10 7-7 13-10 17-11 24-11 17-5 22-4 49-1 208-1 10-4 6-7 2-7-2-12-3-5-1-3-6-2-2-1-15-1-48-1 2-4 16-12 9-13 6-16v-29l-4-12-6-11-9-10-14-10z" fill="#fff"/>
<path transform="translate(1046,107)" d="m0 0h321l-1 14-19 106-1 1h-190l-1 11-10 55-1 2h172v10l-19 104-3 6h-171l-1 11-10 58 191 1v12l-19 110h-324v-12l31-177 21-119 22-125z" fill="#fff"/>
<path transform="translate(767,96)" d="m0 0h41l24 3 20 5 24 9 15 8 11 7 17 14 17 17 11 16 11 19 6 13v6l-19 10-26 14-22 12-23 12-18 10-4-1-10-18-12-14-10-7-15-7-12-3h-28l-13 3-13 7-3 1-2 5-3 5-2 8v14l6 10 16 10 22 10 43 16 21 8 27 12 19 12 14 11 13 11 11 14 8 15 5 15 3 18v30l-4 26-5 19-9 22-9 16-9 12-12 14-11 10-19 13-16 9-23 9-15 5-22 5-23 3h-63l-24-3-22-5-26-9-17-8-19-13-14-12-12-12-11-15-9-16-8-18-3-11v-4l42-22 70-36h4l8 18 7 11 7 8 3 3 11 8 16 7 16 4h43l18-4 13-7 7-8 3-8v-16l-5-9-7-6-14-8-26-10-46-16-25-11-20-11-18-13-12-11-14-14-10-16-5-12-4-15-2-13v-25l4-26 5-20 9-22 11-19 9-11 12-13 9-9 17-12 19-11 20-9 22-7 27-5z" fill="#fff"/>
<path transform="translate(214,120)" d="m0 0h15l13 4 6 4 9 8 6 9 4 10 1 13-4 16-6 10-9 9-14 7-4 1h-19l-13-5-10-8-8-10-5-13v-19l5-12 7-10 8-7 10-5z" fill="#fff"/>
<path transform="translate(314,120)" d="m0 0h16l10 3 11 6 9 9 7 14 1 4v18l-5 14-8 10-9 7-10 5-4 1h-19l-13-5-9-7-7-8-6-12-1-5v-19l5-12 8-10 7-6 12-6z" fill="#fff"/>
</svg>
