<?xml version="1.0" standalone="no"?>
<!DOCTYPE svg PUBLIC "-//W3C//DTD SVG 20010904//EN"
 "http://www.w3.org/TR/2001/REC-SVG-20010904/DTD/svg10.dtd">
<svg version="1.0" xmlns="http://www.w3.org/2000/svg"
 width="14089.000000pt" height="2775.000000pt" viewBox="0 0 14089.000000 2775.000000"
 preserveAspectRatio="xMidYMid meet">

<g transform="translate(0.000000,2775.000000) scale(0.100000,-0.100000)"
fill="#000000" stroke="none">
<path d="M26668 24410 c-1346 -70 -2499 -418 -3540 -1067 -1602 -999 -2487
-2483 -2690 -4508 -20 -204 -17 -831 5 -1020 101 -848 394 -1496 935 -2067
479 -505 1038 -920 1748 -1296 494 -261 985 -466 1689 -705 669 -227 1183
-407 1455 -510 694 -262 1115 -561 1286 -912 59 -123 75 -189 81 -332 18 -432
-229 -839 -651 -1072 -368 -203 -914 -310 -1583 -311 -818 -1 -1486 174 -2013
525 -510 340 -875 838 -1125 1537 l-27 77 -62 -31 c-123 -62 -3841 -1980
-3845 -1984 -13 -11 138 -469 223 -677 438 -1073 1141 -1908 2154 -2553 1087
-693 2562 -1054 4307 -1054 1824 1 3329 377 4556 1140 1318 819 2143 2038
2478 3660 151 732 172 1578 56 2205 -107 576 -330 1083 -664 1505 -263 331
-839 808 -1406 1162 -517 323 -1184 612 -2415 1048 -1339 474 -2067 817 -2371
1119 -249 247 -328 511 -255 853 62 295 157 480 340 664 288 290 707 433 1321
451 1216 35 2090 -513 2662 -1669 31 -65 61 -118 65 -118 8 0 3739 1999 3751
2009 14 14 -137 362 -284 651 -597 1178 -1483 2058 -2644 2626 -753 368 -1533
569 -2495 644 -184 14 -837 20 -1042 10z"/>
<path d="M56750 24413 c-1949 -70 -3684 -615 -5230 -1644 -1257 -836 -2349
-1951 -3118 -3185 -815 -1307 -1343 -2862 -1526 -4494 -159 -1413 -15 -2735
424 -3895 482 -1274 1369 -2458 2445 -3263 1010 -756 2225 -1225 3630 -1401
691 -87 1517 -103 2280 -46 2097 159 3893 844 5425 2070 472 378 967 863 1352
1327 1077 1294 1806 2922 2147 4793 35 191 341 1996 341 2010 0 3 -1954 5
-4343 5 l-4342 0 -329 -1877 c-181 -1033 -331 -1886 -334 -1895 -4 -17 95 -18
1987 -18 1095 0 1991 -4 1991 -8 0 -5 -38 -71 -85 -147 -756 -1228 -1952
-1919 -3600 -2079 -390 -38 -949 -45 -1255 -16 -668 64 -1227 235 -1695 519
-679 412 -1214 1102 -1475 1901 -264 811 -265 1770 -4 2825 326 1317 1033
2399 2078 3179 785 586 1624 907 2646 1013 237 24 847 24 1090 0 884 -89 1550
-336 2140 -793 143 -111 448 -413 563 -559 97 -122 236 -324 316 -457 l52 -87
62 34 c34 18 939 504 2011 1079 1072 575 1951 1048 1954 1051 12 11 -175 341
-339 600 -464 732 -1070 1384 -1771 1908 -590 441 -1270 806 -1959 1053 -945
338 -2029 510 -3174 502 -154 -1 -314 -3 -355 -5z"/>
<path d="M107100 24414 c-291 -13 -515 -27 -705 -45 -1729 -158 -3278 -691
-4640 -1599 -1252 -834 -2374 -1994 -3174 -3283 -883 -1422 -1433 -3160 -1541
-4867 -13 -211 -13 -815 0 -1030 85 -1388 519 -2724 1236 -3806 872 -1316
2238 -2362 3772 -2888 1114 -382 2344 -516 3752 -411 1919 144 3611 742 5071
1790 1240 891 2332 2116 3079 3455 846 1517 1340 3385 1340 5070 0 1754 -513
3301 -1558 4695 -1272 1697 -3010 2655 -5212 2874 -113 11 -275 25 -360 31
-154 11 -916 21 -1060 14z m232 -4314 c1097 -74 1951 -452 2592 -1149 529
-574 831 -1249 923 -2063 24 -211 24 -727 0 -953 -34 -319 -103 -709 -176
-995 -260 -1019 -790 -1913 -1559 -2626 -1105 -1027 -2410 -1554 -3847 -1554
-1160 0 -2093 338 -2766 1001 -904 892 -1227 2133 -953 3664 269 1501 1018
2718 2228 3622 268 201 505 348 801 498 230 116 384 183 601 260 473 169 953
263 1509 298 125 8 508 6 647 -3z"/>
<path d="M12042 23996 c198 -109 343 -220 513 -391 777 -781 863 -2027 201
-2909 -197 -262 -454 -485 -731 -633 l-90 -48 1045 -5 c768 -4 1056 -9 1087
-18 239 -68 445 -252 541 -484 34 -81 62 -219 62 -302 -1 -350 -255 -659 -642
-778 l-73 -23 -4245 -6 c-2335 -4 -4261 -9 -4280 -12 -19 -4 -93 -11 -165 -17
-735 -62 -1530 -299 -2190 -652 -876 -470 -1581 -1112 -2130 -1943 -595 -899
-913 -1920 -941 -3025 -20 -765 115 -1529 396 -2231 79 -197 275 -595 380
-769 489 -812 1132 -1472 1925 -1977 207 -132 364 -219 615 -341 331 -162 604
-267 950 -367 414 -119 720 -175 1245 -227 90 -9 1285 -12 4786 -15 l4665 -4
894 2008 c491 1104 895 2016 898 2025 4 17 -276 18 -5604 21 l-5609 2 -100 23
c-240 55 -486 162 -665 289 -116 83 -316 279 -398 391 -289 393 -403 901 -306
1369 27 133 73 263 140 398 208 419 586 742 1059 905 162 55 329 88 520 100
104 6 1560 10 4180 10 2625 0 4062 4 4140 10 675 57 1281 222 1857 506 231
114 359 188 558 319 733 485 1300 1123 1685 1897 264 529 417 1074 477 1693
19 197 16 693 -6 900 -85 815 -341 1538 -779 2195 -195 292 -365 499 -622 755
-382 382 -745 646 -1210 880 -582 294 -1228 470 -1924 524 -83 7 -534 11
-1170 11 l-1036 0 97 -54z"/>
<path d="M36045 24028 c-3 -13 -683 -3879 -1510 -8593 -828 -4714 -1507 -8580
-1510 -8592 l-5 -23 5537 0 5538 0 353 2048 c194 1126 356 2055 358 2064 5 17
-159 18 -3318 20 l-3323 3 220 1265 221 1265 2954 5 2954 5 368 2010 c202
1106 368 2013 368 2018 0 4 -1339 7 -2975 7 -2177 0 -2975 3 -2975 11 0 11
425 2335 435 2377 l5 22 3260 0 3260 0 5 23 c2 12 167 927 365 2032 198 1106
362 2020 365 2033 l5 22 -5475 0 -5475 0 -5 -22z"/>
<path d="M67636 15446 c-2393 -4731 -4352 -8608 -4354 -8614 -3 -9 573 -11
2419 -10 l2423 3 590 1242 589 1243 2869 0 c1577 0 2868 -3 2868 -7 0 -15 260
-2418 266 -2450 l5 -33 2349 0 2350 0 -6 28 c-2 15 -599 3879 -1324 8587 -726
4708 -1323 8572 -1326 8588 l-6 27 -2681 0 -2682 0 -4349 -8604z m6659 673
c173 -1608 316 -2945 320 -2971 l6 -48 -1747 0 c-1659 0 -1746 1 -1739 18 15
41 2840 5929 2843 5927 2 -2 144 -1318 317 -2926z"/>
<path d="M84316 24018 c-3 -18 -687 -3885 -1521 -8593 -833 -4708 -1517 -8570
-1520 -8582 l-5 -23 2203 0 2202 0 489 2783 c268 1530 491 2785 495 2790 9 9
1865 -11 1869 -21 2 -4 456 -1253 1011 -2777 l1007 -2770 2218 -3 c1219 -1
2215 1 2213 5 -10 16 -2357 6233 -2357 6243 0 5 5 10 11 10 19 0 391 184 545
270 1089 607 1930 1454 2508 2528 427 792 703 1777 767 2742 14 217 6 680 -15
880 -120 1101 -561 2039 -1352 2881 -863 917 -1931 1458 -3194 1618 -370 47
-170 45 -3991 48 l-3577 3 -6 -32z m6419 -4055 c373 -68 631 -197 850 -424
307 -320 442 -757 395 -1274 -22 -238 -84 -512 -166 -732 -252 -678 -797
-1199 -1419 -1357 -253 -64 -154 -60 -1687 -63 -862 -2 -1398 0 -1398 6 0 11
667 3815 675 3849 l6 23 1312 -3 c1296 -4 1313 -4 1432 -25z"/>
<path d="M116445 24018 c2 -18 405 -3880 895 -8583 490 -4702 893 -8565 896
-8583 l5 -32 2312 2 2311 3 2236 4852 c1498 3251 2237 4846 2242 4835 4 -9
241 -2177 528 -4817 287 -2640 524 -4817 527 -4838 l6 -37 2324 2 2325 3 3909
8605 c2150 4733 3909 8608 3909 8613 0 4 -1084 7 -2408 7 l-2408 0 -2315
-5422 c-2191 -5134 -2314 -5420 -2322 -5382 -4 21 -268 2444 -587 5384 -319
2940 -583 5362 -586 5383 l-6 37 -1756 -2 -1757 -3 -2480 -5417 c-1364 -2980
-2482 -5418 -2485 -5418 -3 0 -199 2438 -435 5418 l-430 5417 -2228 3 -2228 2
6 -32z"/>
<path d="M7475 23583 c-415 -51 -774 -237 -1017 -529 -370 -444 -466 -1026
-258 -1557 151 -386 471 -706 857 -857 656 -257 1397 -40 1806 529 334 463
378 1081 115 1592 -229 445 -659 748 -1155 814 -99 13 -274 17 -348 8z"/>
<path d="M10878 23575 c-646 -92 -1151 -567 -1289 -1215 -33 -150 -33 -448 -1
-596 32 -147 65 -244 131 -379 349 -714 1188 -1037 1934 -745 192 75 365 189
516 340 688 687 566 1835 -249 2363 -168 109 -342 179 -537 217 -139 28 -370
35 -505 15z"/>
</g>
</svg>
